{"title":"Diagnosis.Death.2009.480p.BRRip.XviD.AC3-LEGi0N","uid":5630685,"size":1486196194,"categoryP":"video","categoryS":"movies","magnet":"?xt=urn:btih:2ea45429c15528c646934ba8448c7b2df242d61e&amp;dn=Diagnosis.Death.2009.480p.BRRip.XviD.AC3-LEGi0N&amp;tr=udp%3A%2F%2Ftracker.openbittorrent.com%3A80&amp;tr=udp%3A%2F%2Fopen.demonii.com%3A1337&amp;tr=udp%3A%2F%2Ftracker.coppersurfer.tk%3A6969&amp;tr=udp%3A%2F%2Fexodus.desync.com%3A6969","seeders":0,"leechers":2,"uploader":".BONE.","files":3,"time":1276663736,"description":"General\nFormat: AVI\nFile size: 1.37 GiB\nDuration: 1h 22mn\nOverall bit rate: 2 366 Kbps\nIMDb Rating: 4.7/10 349 votes\nGenre: Comedy | Horror\nSource: 720p bluray x264-TITANS\nVideo\nFormat: MPEG-4 Visual\nFormat profile: Streaming Video@L1\nFormat settings, BVOP: Yes\nFormat settings, QPel: No\nFormat settings, GMC: No warppoints\nFormat settings, Matrix: Default (H.263)\nMuxing mode: Packed bitstream\nCodec ID: XVID\nBit rate: 1 908 Kbps\nWidth: 720 pixels\nHeight: 400 pixels\nDisplay aspect ratio: 16/9\nFrame rate: 23.976 fps\nResolution: 24 bits\nColorimetry: 4:2:0\nScan type: Progressive\nBits/(Pixel*Frame): 0.276\nStream size: 1.10 GiB (81%)\nAudio\nFormat: AC-3\nBit rate mode: Constant\nBit rate: 448 Kbps\nChannel(s): 6 channels\nSampling rate: 48.0 KHz\nStream size: 266 MiB (19%) ","torrent":{"xt":"urn:btih:2ea45429c15528c646934ba8448c7b2df242d61e","amp;dn":"Diagnosis.Death.2009.480p.BRRip.XviD.AC3-LEGi0N","amp;tr":["udp%3A%2F%2Ftracker.openbittorrent.com%3A80","udp%3A%2F%2Fopen.demonii.com%3A1337","udp%3A%2F%2Ftracker.coppersurfer.tk%3A6969","udp%3A%2F%2Fexodus.desync.com%3A6969"],"infoHash":"2ea45429c15528c646934ba8448c7b2df242d61e","infoHashBuffer":{"type":"Buffer","data":[46,164,84,41,193,85,40,198,70,147,75,168,68,140,123,45,242,66,214,30]},"announce":[],"urlList":[]}}